<svg width="256" height="256" viewBox="0 0 256 256" fill="none" xmlns="http://www.w3.org/2000/svg">
<rect width="256" height="256" fill="white"/>
<path fill-rule="evenodd" clip-rule="evenodd" d="M178.126 27.9893C180.589 28.014 182.938 29.0307 184.643 30.8091C186.057 32.2739 187.154 34.349 187.377 36.384C192.987 34.6535 198.073 36.8438 199.826 42.6061C205.683 39.9481 211.134 42.9782 212.925 48.956C217.406 45.7186 222.952 46.7256 226.126 51.2147C227.679 53.4031 228.289 56.1237 227.816 58.7655C227.189 62.3665 224.837 64.1047 222.265 66.4306C227.132 68.7545 229.422 74.4977 227.069 79.4408C226.065 81.5497 224.037 83.2247 222.357 84.8115C224.739 85.9071 226.457 87.7421 227.372 90.2111C228.284 92.6584 228.167 95.3715 227.045 97.7305C225.9 100.141 218.888 106.364 216.674 108.483L200.047 124.374C200.061 126.064 200.315 132.661 199.626 133.932C197.386 138.061 192.149 141.58 188.857 144.967C187.292 146.567 185.168 148.347 182.982 148.393C180.586 148.447 178.701 147.16 176.542 146.484L144.781 176.892C143.775 177.854 141.793 179.843 140.781 180.655C140.885 184.406 141.499 188.29 138.412 191.039C134.45 194.564 130.439 199.12 126.026 202.079C124.179 203.32 121.028 202.235 119.161 201.356C113.025 207.381 106.826 213.338 100.564 219.23C98.4305 221.263 94.8246 225.265 92.5475 226.684C86.5343 230.432 80.3816 225.568 78.0357 220.413C72.1279 225.948 64.4052 221.292 61.8791 214.733C57.6458 218.703 51.8722 217.522 48.1688 213.526C46.7794 212.028 46.0106 210.483 45.2811 208.596C41.1554 212.691 35.4989 211.995 31.5903 207.991C29.2615 205.579 27.9805 202.346 28.0271 198.994C28.1207 194.914 30.4695 191.854 33.821 189.734C28.7076 186.613 26.1766 179.087 29.5013 173.913C30.2965 172.675 34.6785 168.259 35.799 167.503L38.045 165.366C38.0004 164.906 37.966 164.446 37.9418 163.985C37.8056 161.359 38.4385 158.826 40.236 156.843C40.6714 156.073 47.2815 150.002 48.3281 148.999L72.2951 125.961C72.2883 123.841 72.0008 118.163 72.8475 116.341C74.0601 114.04 76.4817 111.868 78.4288 110.156C80.7901 108.08 83.1012 105.635 85.7625 104.029C88.514 102.368 91.6068 103.924 94.147 105.125C105.558 93.6868 117.858 82.5245 129.434 71.1846C129.219 67.7176 128.854 63.2996 131.457 60.6628C134.355 57.7285 137.444 55.0329 140.51 52.2805C143.483 49.6127 146.715 49.6364 150.185 51.4096C155.181 46.5278 160.206 41.6761 165.261 36.855C166.582 35.5851 167.906 34.2999 169.233 33.0357C171.988 30.4105 174.009 27.9822 178.126 27.9893ZM85.7237 210.775C82.4705 211.118 81.2486 213.723 81.6223 216.755C81.8831 218.924 83.0026 220.898 84.7301 222.235C85.9709 223.196 86.8503 223.433 88.3508 223.582C95.3585 222.313 92.5832 211.181 85.7237 210.775ZM72.899 218.351C79.3124 216.543 76.3005 205.43 69.1061 205.755C62.7477 207.562 65.7302 218.526 72.899 218.351ZM124.303 175.994C120.999 179.311 117.21 182.736 113.769 185.952L90.5038 207.608C93.9624 209.664 96.2371 212.914 96.7207 216.953C98.2276 215.406 100.024 213.71 101.626 212.23C101.887 210.373 102.027 208.482 100.876 206.876C100.123 205.825 99.2165 205.143 98.8073 203.992C98.8786 203.359 99.1642 202.114 99.7646 201.805C103.3 199.984 105.455 205.891 106.056 208.175C106.999 207.026 108.557 205.736 109.653 204.592C109.676 203.944 109.661 200.968 109.099 200.274C107.749 198.604 104.204 194.647 109.322 194.52C111.21 194.473 113.258 198.537 113.819 200.528L117.353 197.162C117.353 195.721 117.397 194.692 116.788 193.303C116.149 191.846 113.254 189.836 115 188.136C116.631 186.549 118.362 187.831 119.47 189.261C120.418 190.432 120.942 191.702 121.445 193.117C122.429 192.193 123.406 191.264 124.377 190.327L124.361 180.71C124.361 179.772 124.414 176.764 124.303 175.994ZM56.7449 212.652C62.9123 210.565 59.9574 199.591 52.4789 200.064C45.7731 202.825 50.6462 213.718 56.7449 212.652ZM39.7873 206.922C46.1669 204.827 43.0278 194.028 35.8441 194.342C29.9967 196.18 32.4281 204.499 36.8636 206.461C38.075 206.997 38.5182 206.962 39.7873 206.922ZM85.3595 205.71C91.7708 202.497 87.7493 192.822 81.0482 193.177C74.3551 195.66 78.6841 206.574 85.3595 205.71ZM67.0009 187.04C59.8031 188.051 62.9322 199.948 69.9997 199.749C76.2796 198.286 74.184 187.47 67.0009 187.04ZM96.9083 178.568C94.5054 180.748 92.1152 182.941 89.7379 185.15C88.4881 186.311 86.4715 188.29 85.1635 189.268C89.6944 190.689 91.9909 194.952 92.99 199.285C94.2708 198.039 96.9074 195.52 98.2656 194.426C98.658 189.833 98.1199 189.864 95.5398 186.683C95.3373 185.45 95.6169 183.385 97.2654 183.562C100.456 183.905 102.004 187.656 102.596 190.331L106.191 186.96C106.251 185.512 106.363 183.668 105.769 182.528C105.147 181.336 102.119 178.58 103.592 177.176C105.355 175.496 107.422 176.972 108.474 178.469C109.626 180.108 109.963 180.906 110.367 182.651L110.466 183.075C111.659 181.919 112.864 180.777 114.08 179.648C114.206 176.02 114.039 175.341 111.526 172.649L111.434 172.549C110.794 169.478 112.88 168.409 115.224 170.168C116.913 171.436 117.805 173.72 118.257 175.689C120.203 173.935 122.429 171.775 124.357 170.121L124.362 158.922C124.362 157.96 124.425 154.397 124.318 153.584L96.9083 178.568ZM45.2362 188.583C43.894 189.912 43.0032 190.442 41.213 191.031C44.3356 192.74 45.6922 194.773 47.0415 198.071C47.1146 198.25 47.0546 198.168 47.1857 198.294C48.6082 196.943 49.3542 196.421 51.2833 195.847C48.2988 194.104 46.7703 191.884 45.4126 188.807C45.3492 188.663 45.3587 188.695 45.2362 188.583ZM89.6904 108.026C89.1121 107.777 88.6628 107.772 88.0475 107.804C86.437 108.584 82.3867 112.514 80.8683 113.927C83.6526 114.931 87.2778 116.612 90.0478 117.802L107.723 125.431L119.023 130.289C129.064 134.597 128.746 134.288 128.742 145.332L128.733 194.173C129.116 193.789 129.626 193.244 130.021 192.898C131.752 191.321 134.897 188.583 136.341 186.869C136.544 182.919 136.43 178.16 136.423 174.168L136.451 154.485C136.48 146.577 136.429 138.603 136.424 130.69C136.424 129.961 135.979 128.714 135.45 128.133C133.21 126.412 129.071 124.935 126.517 123.838L112.966 118.023L97.3793 111.358C94.8131 110.254 92.2556 109.131 89.6904 108.026ZM60.0559 186.503C59.0949 183.097 57.1378 179.711 53.0485 179.859C46.4828 181.155 48.8256 191.933 56.1196 192.527C57.2186 192.349 57.6459 192.2 58.5418 191.525C58.703 189.51 59.0883 188.285 60.0559 186.503ZM39.9106 186.78C46.179 184.223 42.8268 173.85 35.6494 174.282C28.7641 176.896 33.9406 188.017 39.9106 186.78ZM78.8991 172.375C71.9939 174.383 76.2875 185.974 82.8623 184.986C89.0351 182.804 85.9379 172.17 78.8991 172.375ZM71.6203 181.566C71.0938 182.076 70.5708 182.596 70.023 183.082C71.0544 183.335 71.365 183.565 72.2788 184.062L72.8842 184.445L73.018 184.353C72.8953 183.914 71.832 181.771 71.6203 181.566ZM112.918 132.519C107.832 137.466 102.528 142.535 97.5167 147.549C98.2648 147.801 98.9925 148.132 99.3323 148.899C99.5247 149.334 99.5542 149.948 99.3726 150.39C98.8101 151.762 84.1487 165.927 81.8202 168.258C86.3971 169.395 90.0725 173.838 90.4471 178.519C91.892 177.214 93.4915 175.821 94.8605 174.459C94.953 172.782 95.0429 171.466 94.4414 169.798C93.8372 168.163 90.5841 166.252 92.4047 164.395C92.7416 164.051 93.9313 163.446 94.4087 163.6C97.2035 164.498 98.5722 168.152 99.0885 170.569C100.229 169.61 101.609 168.379 102.688 167.337C102.748 165.051 102.779 164.244 101.941 162.122C101.058 160.773 99.3346 159.987 99.835 158.047C99.9554 157.577 100.259 157.175 100.678 156.932C102.254 156.026 103.94 157.21 104.743 158.585C105.991 159.764 106.64 161.872 106.927 163.531C107.96 162.534 109.404 161.173 110.534 160.276C110.628 158.512 110.69 157.31 110.033 155.629C109.419 154.059 106.277 151.947 108.177 150.251C110.174 148.469 111.771 150.411 112.975 151.949C114.096 153.382 114.43 154.763 114.672 156.49C116.51 154.67 118.664 152.837 120.59 151.08C121.626 150.135 123.33 148.479 124.356 147.719C124.359 145.821 124.486 139.638 124.158 138.065C122.81 139.411 118.37 144.236 116.743 144.226C116.063 144.223 115.489 144.033 115.029 143.519C114.695 143.144 114.544 142.691 114.579 142.189C114.71 140.322 118.941 136.983 120.323 135.694L112.918 132.519ZM45.2896 174.647C46.3077 176.086 46.5814 176.612 47.1142 178.289C47.693 177.72 48.2834 177.162 48.885 176.618C49.4812 176.112 50.0726 175.603 50.6591 175.086C48.3744 175.639 47.4807 175.336 45.2896 174.647ZM62.8364 165.227C55.8075 166.394 58.8177 177.898 66.1482 177.82C72.6402 175.978 69.6234 165.545 62.8364 165.227ZM183.505 121.252C182.042 122.839 179.31 125.242 177.683 126.764L166.588 137.131L149.594 152.941C146.843 155.498 143.654 158.625 140.854 161.062C140.862 162.702 140.613 173.832 140.995 174.389C141.008 174.409 141.029 174.421 141.046 174.437C155.041 160.702 169.693 147.335 183.651 133.613C183.651 132.317 183.736 121.492 183.505 121.252ZM45.9964 158.317C39.1659 160.05 42.4241 171.122 49.3734 170.902C56.0394 169.235 52.7592 158.085 45.9964 158.317ZM64.1779 160.851C69.1418 161.532 72.52 165.482 73.8216 170.12C77.8925 165.722 82.3938 161.514 86.6159 157.25C88.3942 155.453 90.3669 153.649 92.0536 151.783C88.9901 149.544 90.4729 148.198 92.7526 146.101C94.3837 144.28 97.2731 141.665 99.1134 139.875C101.443 137.371 104.081 135.048 106.495 132.619C107.171 131.938 107.929 131.198 108.682 130.615C105.827 129.608 102.014 127.828 99.1405 126.607L64.1779 160.851ZM60.9522 142.921L53.0196 150.588C52.0093 151.559 50.196 153.401 49.1731 154.242C52.5039 155.557 54.9101 157.497 56.3824 160.869C56.5215 161.191 56.653 161.516 56.7769 161.846C58.6335 159.848 60.5606 157.919 62.5545 156.059C62.5784 154.82 62.683 153.34 62.2307 152.197C61.4512 150.229 58.275 148.746 60.4756 146.471C61.0986 145.827 61.8966 145.864 62.6971 146.025C65.1435 147.489 66.0113 149.459 66.6671 152.074C67.9446 150.805 69.3828 149.433 70.6106 148.135C70.5554 147.13 70.527 145.806 70.0872 144.907C69.3754 143.452 66.3859 141.561 68.1985 139.585C68.5992 139.15 69.1559 138.893 69.7465 138.868C72.1471 138.772 73.8366 142.378 74.5842 144.245C75.8229 143.046 77.1136 141.835 78.2892 140.58C78.1459 137.698 77.2965 137.192 75.8545 134.914C74.9598 133.5 76.4045 131.785 77.8471 131.888C79.9517 132.037 81.5204 135.204 82.2058 136.836L94.8495 124.65C92.1268 123.538 87.0093 121.107 84.4904 120.325L60.9522 142.921ZM183.486 101.157C179.77 104.66 175.687 108.202 171.877 111.647L140.869 139.641C140.862 141.328 140.758 154.577 141.017 154.891L141.141 154.864L183.625 115.13L183.603 105.768C183.601 104.847 183.657 101.916 183.486 101.157ZM183.51 139.849C182.705 140.638 180.946 142.208 180.332 143.009C180.644 143.343 180.8 143.317 181.282 143.472C182.5 143.873 183.415 144.1 183.754 142.278C183.821 141.917 183.701 140.086 183.51 139.849ZM145.706 54.5059C143.319 54.9038 139.835 58.8686 138.04 60.58C147.967 64.6164 158.209 69.2715 168.114 73.4928L178.376 77.8676C182.865 79.7805 187.844 80.9945 187.961 86.9056C188.053 91.5869 188.014 96.2742 188.021 100.957L188.015 129.972C188.017 131.274 187.952 138.971 188.116 139.736C190.206 137.686 193.965 134.711 195.466 132.32C195.606 132.099 195.648 130.46 195.651 130.119L195.641 93.9687L195.626 83.2107C195.625 81.4087 195.677 79.5445 195.55 77.7551C195.466 76.5935 194.424 75.1359 193.347 74.6774C189.029 72.8381 184.716 70.9861 180.401 69.1364L156.379 58.8696C154.487 58.0758 147.285 54.7054 145.706 54.5059ZM138.87 107.418C134.935 111.246 130.82 115.41 126.823 119.128L132.262 121.465C139.076 124.404 141.055 125.752 140.882 133.679C143.379 131.311 145.996 128.988 148.581 126.714C159.314 117.269 169.757 107.476 180.472 98.0138C181.219 97.325 182.837 95.7524 183.585 95.2095C183.604 93.6977 183.672 92.1472 183.635 90.6403C183.579 88.2478 184.111 85.9798 181.917 84.4528L156.486 108.608L148.052 116.587C146.61 117.961 145.18 119.374 143.706 120.698C143.152 121.195 142.064 121.433 141.424 121.082C139.807 120.197 139.749 118.537 140.983 117.306C142.413 115.88 143.786 114.598 145.214 113.255L177.576 82.4795C176.106 81.7887 169.489 79.0339 168.652 78.4906L138.87 107.418ZM77.5698 117.524C76.395 118.577 76.7183 120.172 76.746 121.66C77.134 121.303 77.5702 120.879 77.9637 120.541L80.1387 118.395C79.3312 118.113 78.3805 117.756 77.5698 117.524ZM218.755 88.2566C216.671 90.0552 214.388 92.3106 212.367 94.2213L200.056 105.86L200.058 118.278C200.868 117.459 201.699 116.659 202.549 115.88L216.46 102.614C218.424 100.735 220.654 98.6865 222.504 96.687C223.068 96.0763 223.441 94.6806 223.463 93.8293C223.503 92.2857 222.899 90.7949 221.798 89.7127C220.979 88.8949 219.906 88.3813 218.755 88.2566ZM126.202 100.569C122.194 104.408 117.003 109.702 112.966 113.207C116.084 114.553 119.312 115.899 122.393 117.299C123.189 116.779 125.82 114.046 126.595 113.272C128.285 111.583 130.039 109.926 131.748 108.255L153.715 86.8475L159.956 80.7421C161.225 79.4841 162.873 77.7523 164.213 76.6439C161.205 75.3607 158.138 74.0674 155.151 72.7429L126.202 100.569ZM98.5297 107.05C100.417 107.855 106.264 110.375 108.472 111.259C108.576 111.233 108.679 111.208 108.783 111.182L137.411 83.7017L146.039 75.3421C147.143 74.2768 149.71 71.7171 150.85 70.8879C147.975 69.8635 143.136 67.2997 140.597 66.5706L98.5297 107.05ZM218.491 70.0019C217.123 70.8933 213.675 74.2067 212.31 75.4414L200.055 86.4915L200.059 99.8262C201.014 98.9697 201.948 98.0901 202.861 97.1884C207.138 93.1822 211.387 89.1433 215.603 85.0724C217.933 82.8617 220.67 80.3613 222.819 77.9633C223.202 77.5345 223.478 76.2365 223.503 75.6324C223.567 74.0988 222.986 72.6085 221.9 71.5232C220.929 70.5446 219.863 70.0643 218.491 70.0019ZM218.374 51.5353C218.118 51.5361 217.861 51.5432 217.605 51.5568C217.148 51.7054 216.344 51.956 215.987 52.2756C209.208 58.3345 202.861 64.9283 196.143 71.0533C199.923 74.0289 200.14 76.1951 200.059 80.6364L201.367 79.44L216.299 65.8823C218.055 64.2783 221.405 61.5528 222.779 59.7435C225.017 56.7962 222.324 51.5512 218.374 51.5353ZM208.748 51.3594C208.695 48.0863 206.411 45.9506 203.121 46.1488C202.515 46.3061 201.956 46.4438 201.471 46.8454C199.177 48.7429 196.91 51.0687 194.769 53.1484L182.403 65.1498C184.457 65.8934 187.065 67.1326 189.118 68.0203C189.938 68.3744 190.889 68.7581 191.684 69.1364L202.25 59.1345C203.23 58.2151 204.347 57.2512 205.28 56.2902C206.704 54.8225 208.786 53.6176 208.748 51.3594ZM134.387 64.189C133.815 64.9785 133.87 66.0751 133.82 67.0769L134.696 66.1576C135.201 65.696 135.683 65.2335 136.232 64.8226L134.387 64.189ZM195.698 44.4343C195.282 41.2082 192.605 40.0745 189.818 40.2852C189.474 40.4321 188.693 40.7655 188.431 41.0135C182.028 47.0759 175.418 53.2213 169.205 59.4672C171.272 60.4318 174.322 61.5658 176.178 62.5173C176.8 62.7706 177.281 62.9819 177.884 63.2811C181.822 59.3894 185.786 55.5249 189.778 51.6881C191.567 49.9626 193.585 48.1521 195.22 46.2736C195.508 45.9437 195.732 44.8732 195.698 44.4343ZM182.121 40.6399C185.545 36.4897 179.703 29.8477 175.39 33.3944C172.471 35.7944 169.832 38.7269 167.042 41.2839C163.079 45.2868 158.487 49.2796 154.612 53.2847C157.889 54.6941 161.388 56.274 164.68 57.5925C165.739 56.6213 171.367 50.9746 171.95 50.6345C172.159 50.4129 172.369 50.1924 172.581 49.9732C172.792 49.754 173.004 49.5359 173.218 49.319C174.287 48.2346 175.386 47.1801 176.513 46.1565C176.738 45.9518 176.965 45.7483 177.193 45.5461L177.292 45.4341C178.795 43.7522 180.659 42.4111 182.121 40.6399Z" fill="#CD1E22"/>
<path d="M61.2765 87.0061C63.3069 87.1477 71.701 91.3839 74.0027 92.5343C75.5433 93.3043 74.6596 105.373 74.7449 107.476C74.8184 109.284 71.4779 110.151 70.7193 108.196C70.2516 106.99 70.4224 104.618 70.4244 103.211L70.4464 95.629C68.2118 94.6154 65.9691 93.6199 63.7185 92.6424L63.7254 118.72C63.732 121.437 63.7447 124.148 63.725 126.871C63.7147 128.296 62.9878 129.688 61.3396 129.403C60.2515 129.215 59.9591 128.794 59.3532 127.912C59.152 121.125 59.4447 113.87 59.3316 107.03C59.3674 101.349 59.3116 95.6642 59.3106 89.9831C59.3103 88.2972 59.6535 87.5093 61.2765 87.0061Z" fill="#CD1E22"/>
</svg>
